<?xml version="1.0" encoding="UTF-8" standalone="no"?>
<!-- Created with Inkscape (http://www.inkscape.org/) -->

<svg
   xmlns:dc="http://purl.org/dc/elements/1.1/"
   xmlns:cc="http://creativecommons.org/ns#"
   xmlns:rdf="http://www.w3.org/1999/02/22-rdf-syntax-ns#"
   xmlns:svg="http://www.w3.org/2000/svg"
   xmlns="http://www.w3.org/2000/svg"
   xmlns:sodipodi="http://sodipodi.sourceforge.net/DTD/sodipodi-0.dtd"
   xmlns:inkscape="http://www.inkscape.org/namespaces/inkscape"
   width="143"
   height="150"
   viewBox="0 0 37.835417 39.687503"
   version="1.1"
   id="svg8"
   sodipodi:docname="dibujo.svg"
   inkscape:version="0.92.4 (5da689c313, 2019-01-14)">
  <defs
     id="defs2" />
  <sodipodi:namedview
     id="base"
     pagecolor="#ffffff"
     bordercolor="#666666"
     borderopacity="1.0"
     inkscape:pageopacity="0.0"
     inkscape:pageshadow="2"
     inkscape:zoom="2.8284271"
     inkscape:cx="133.2373"
     inkscape:cy="101.49968"
     inkscape:document-units="px"
     inkscape:current-layer="layer1"
     showgrid="false"
     units="px"
     showguides="true"
     inkscape:snap-grids="true"
     inkscape:snap-to-guides="true"
     inkscape:window-width="1366"
     inkscape:window-height="745"
     inkscape:window-x="-8"
     inkscape:window-y="-8"
     inkscape:window-maximized="1"
     showborder="true"
     inkscape:pagecheckerboard="false" />
  <metadata
     id="metadata5">
    <rdf:RDF>
      <cc:Work
         rdf:about="">
        <dc:format>image/svg+xml</dc:format>
        <dc:type
           rdf:resource="http://purl.org/dc/dcmitype/StillImage" />
        <dc:title></dc:title>
      </cc:Work>
    </rdf:RDF>
  </metadata>
  <g
     inkscape:label="Capa 1"
     inkscape:groupmode="layer"
     id="layer1"
     transform="translate(0,-257.31249)"
     style="display:inline;opacity:1">
    <g
       style="display:inline;opacity:1"
       id="g6273"
       transform="matrix(0.68861181,0,0,0.68208663,-79.608437,166.64028)"
       inkscape:transform-center-x="13.83239"
       inkscape:transform-center-y="-8.6839355">
      <rect
         ry="0.6026749"
         y="164.54279"
         x="127.66071"
         height="11.72178"
         width="28.998743"
         id="rect6254"
         style="display:inline;opacity:1;fill:#000000;fill-opacity:1;stroke:none;stroke-width:0.12188994;stroke-opacity:1" />
      <path
         sodipodi:nodetypes="cccccccccccccccccccccccccccccccccccc"
         inkscape:connector-curvature="0"
         id="rect3736-7"
         d="m 117.16123,133.86286 c -0.12387,5.68395 -2.02491,12.06587 -1.53597,16.32162 0.23105,2.01099 3.42486,5.32163 5.71955,7.77886 l 2.60242,-1.39992 -1.80661,2.25826 c 0.30035,0.32993 0.57275,0.63741 0.79892,0.91002 -2.47899,4.48646 -4.85629,8.88444 -5.564,11.112 l 5.25291,0.60978 -4.57543,1.20406 c 9.40586,4.64543 17.97786,11.26188 24.20575,18.41903 6.58778,-7.35801 15.89125,-14.64521 25.00829,-18.51515 l -4.71702,-1.24178 4.65759,-0.54054 c -0.55044,-3.61169 -1.79583,-7.63877 -4.18682,-11.23395 0.0713,-0.0845 0.155,-0.17723 0.23461,-0.26717 l -1.9575,-2.44687 2.82153,1.51773 c 2.28711,-2.38271 5.94047,-5.80224 6.18877,-7.96334 0.48894,-4.25575 -1.29517,-11.80698 -1.41904,-17.49092 -3.47455,2.8062 -1.66068,15.1356 -10.40026,9.51776 -2.24208,1.89089 -4.97181,3.54581 -6.00028,5.1444 -0.31273,0.48609 -1.68752,1.93363 -1.77734,2.63735 -3.15105,-2.65013 -9.38884,-7.09951 -17.17358,-2.61693 -0.0428,0.01 0.31067,3.31004 0.26734,3.32194 -0.44034,-2.91136 -3.8267,-6.62867 -6.71129,-9.06142 z m 39.49821,30.67993 -2.66961,6.42545 -3.77961,0.75602 0.0475,-4.0871 z m -27.98536,0.19017 6.40166,3.09437 0.0476,4.0871 -3.78013,-0.75602 z"
         style="display:inline;opacity:1;fill:#fb561a;fill-opacity:1;stroke:none;stroke-width:0.26458335;stroke-opacity:1" />
      <g
         transform="translate(34.599431,20.1657)"
         id="g4753"
         style="display:inline;opacity:1">
        <path
           sodipodi:nodetypes="cccccccscccccc"
           style="fill:#f8951f;fill-opacity:1;stroke:none;stroke-width:0.26458335"
           d="m 82.63813,112.94649 c 0.9356,1.5369 5.84902,5.35438 15.08332,21.22403 l 8.73848,33.12304 2.5368,-0.0109 8.04757,-34.5891 c 5.95014,-5.95552 13.02729,-12.44765 16.26206,-18.90789 l -9.44025,7.62434 c -0.14847,0.12522 -0.2963,0.24535 -0.44321,0.36098 -2.07153,1.63046 -3.96097,2.36619 -4.92133,3.85892 -0.31272,0.48609 -0.52254,1.0574 -0.61236,1.76113 -3.15105,-2.65013 -11.14279,-4.84276 -18.92753,-0.36018 -0.0428,0.01 -0.0869,0.0243 -0.13022,0.0362 -0.44034,-2.91136 -3.07836,-3.42478 -5.96295,-5.85753 z"
           id="rect3736"
           inkscape:connector-curvature="0" />
      </g>
      <g
         transform="translate(1e-5)"
         style="opacity:1;fill:#fcc30e;fill-opacity:1"
         id="g4767">
        <g
           transform="translate(-9.03099,11.42308)"
           inkscape:label="Clip"
           id="g236"
           style="display:inline;opacity:1;fill:#fec418;fill-opacity:1;stroke:none">
          <path
             inkscape:connector-curvature="0"
             id="path229"
             d="m 152.57081,178.29491 c 6.48523,-6.88328 15.1734,-13.5257 23.72724,-17.15657 l -4.71703,-1.24179 4.6576,-0.54053 c -0.55044,-3.61168 -1.79583,-7.63876 -4.18682,-11.23394 0.0713,-0.0845 0.155,-0.17723 0.23461,-0.26717 l -1.95751,-2.44688 2.82154,1.51774 c 2.28711,-2.38271 5.94047,-5.80224 6.18877,-7.96334 0.48894,-4.25576 -1.29517,-11.80698 -1.41904,-17.49092 -0.51929,0.74875 -1.08904,1.52204 -1.69964,2.31407 -0.61059,0.79203 -1.26183,1.60284 -1.94458,2.42776 -1.3655,1.64984 -2.85636,3.355 -4.3956,5.07411 -3.07848,3.43821 -6.35128,6.93187 -9.20564,10.14873 l -8.04756,34.32658 c -0.0316,0.0484 -0.012,2.47213 -0.0563,2.53215 z m 13.11962,-25.1752 -2.66961,6.42544 -3.77961,0.75603 0.0475,-4.08709 z"
             style="display:inline;opacity:1;fill:#fec519;fill-opacity:1;stroke:none;stroke-width:0.26458335"
             sodipodi:nodetypes="cccccccccccsscccccccc" />
        </g>
      </g>
      <path
         sodipodi:nodetypes="cccc"
         inkscape:connector-curvature="0"
         id="rect54"
         d="m 138.57477,187.18531 3.684,3.89126 3.77964,-3.90105 z"
         style="display:inline;opacity:1;fill:#000000;fill-opacity:1;stroke-width:0.26458335" />
      <path
         sodipodi:nodetypes="ccccc"
         inkscape:connector-curvature="0"
         id="rect36-3"
         d="m 123.44076,139.0491 -6.2032,-6.19943 -0.7435,7.54609 5.11512,3.2128 z"
         style="display:inline;opacity:1;fill:#000000;fill-opacity:1;stroke-width:0.35438865" />
      <path
         sodipodi:nodetypes="ccccc"
         inkscape:connector-curvature="0"
         id="rect36"
         d="m 162.68598,139.09401 6.2032,-6.19943 0.7435,7.54609 -5.11512,3.2128 z"
         style="display:inline;opacity:1;fill:#000000;fill-opacity:1;stroke-width:0.35438865" />
    </g>
  </g>
</svg>
